<?xml version="1.0" encoding="UTF-8"?>
<svg xmlns="http://www.w3.org/2000/svg" xmlns:xlink="http://www.w3.org/1999/xlink" viewBox="0 0 110 110">
  <defs>
    <style>
      .cls-1 {
        fill: #354052;
      }

      .cls-2 {
        fill: url(#radial-gradient);
      }

      .cls-3 {
        isolation: isolate;
      }

      .cls-4 {
        fill: url(#linear-gradient);
        mix-blend-mode: screen;
      }
    </style>
    <radialGradient id="radial-gradient" cx="53.57" cy="71.02" fx="53.57" fy="89.55" r="55" gradientUnits="userSpaceOnUse">
      <stop offset="0" stop-color="#36e2c4"/>
      <stop offset=".23" stop-color="#39e2c5"/>
      <stop offset=".42" stop-color="#43e2cb"/>
      <stop offset=".6" stop-color="#55e3d5"/>
      <stop offset=".77" stop-color="#6de3e4"/>
      <stop offset=".93" stop-color="#8de4f6"/>
      <stop offset=".95" stop-color="#92e5f9"/>
    </radialGradient>
    <linearGradient id="linear-gradient" x1="4.65" y1="-362.85" x2="77.1" y2="-362.85" gradientTransform="translate(14.13 404.04)" gradientUnits="userSpaceOnUse">
      <stop offset="0" stop-color="#fff"/>
      <stop offset="1" stop-color="#000"/>
    </linearGradient>
  </defs>
  <g class="cls-3">
    <g id="Layer_2" data-name="Layer 2">
      <g id="Icon_Set" data-name="Icon Set">
        <rect class="cls-2" width="110" height="110" rx="25" ry="25"/>
        <rect class="cls-4" x="18.77" y="-8.49" width="72.45" height="99.34" rx="25" ry="25" transform="translate(96.18 -13.82) rotate(90)"/>
        <g>
          <path class="cls-1" d="M87.99,67.06v1.02c-.49,1.05-1.42,1.7-2.61,1.28-.37-.13-4.14-2.63-4.44-2.92-1.41-1.43-.09-3.7,1.85-3.24.35.08,4.19,2.59,4.55,2.93.33.31.36.64.64.94Z"/>
          <path class="cls-1" d="M87.99,32.8v1.02c-.29.3-.31.63-.64.94-.4.37-4.26,2.88-4.65,2.96-1.85.38-3.12-1.87-1.75-3.27.29-.3,4.07-2.79,4.44-2.92,1.15-.41,2.15.22,2.61,1.28Z"/>
          <path class="cls-1" d="M87.99,49.93v1.02c-.37.63-.7,1.21-1.49,1.37-.69.14-3.66.12-4.42.03-2.26-.28-2.26-3.54,0-3.81.76-.09,3.73-.11,4.42.03.78.16,1.12.74,1.49,1.37Z"/>
          <path class="cls-1" d="M24.49,31.43c.5-.1.84-.02,1.29.17s4.07,2.62,4.33,2.9c1.36,1.51-.17,3.8-2.1,3.12-.35-.12-4.27-2.72-4.5-2.99-.98-1.09-.48-2.91.98-3.21Z"/>
          <path class="cls-1" d="M28.3,63.15c1.86-.34,3.08,1.79,1.81,3.21-.27.3-4.33,2.95-4.69,3.05-1.85.48-3.22-1.72-1.91-3.18.31-.35,3.72-2.6,4.25-2.86.18-.09.33-.18.54-.22Z"/>
          <path class="cls-1" d="M24.49,48.56c.6-.12,4.16-.11,4.73.03,1.89.48,1.81,3.33-.1,3.72-.6.12-4.16.11-4.73-.03-1.89-.48-1.81-3.33.1-3.72Z"/>
          <path class="cls-1" d="M50.29,25.06c1.99.36,3.69,1.12,5.25,2.4,1.42-1.35,3.26-2.03,5.16-2.4.7.05,1.47-.07,2.16,0,3.78.37,7.26,3.42,8.15,7.08,6.14,2.17,9.44,9,7.34,15.2-.38,1.12-1.03,2.1-1.53,3.16,4.52,6.45,1.6,15.67-5.81,18.25-.73,3.04-3.09,5.39-5.93,6.57-.19,2.81.62,6.27-2.58,7.64-.34,9.38-13.67,9.38-14,0-3.2-1.37-2.39-4.83-2.58-7.63-2.85-1.21-5.2-3.5-5.93-6.57-7.41-2.59-10.33-11.79-5.81-18.25-.5-1.06-1.15-2.04-1.53-3.16-2.11-6.21,1.2-13.01,7.34-15.2.87-3.66,4.4-6.71,8.15-7.08h2.16ZM53.6,55.26v-24.3c-4.11-4.88-11.95-.43-9.8,5.61.38,1.07.94,1.41,1.47,2.21,1.35,2.02-1.1,4.08-2.84,2.58-1.35-1.17-2.04-3.04-2.55-4.69-.04-.14.09-.23-.19-.18-3.81,2.43-5.05,7.36-2.66,11.28.81,1.33,2.33,2.12,1.17,3.86-1.55,2.33-2.63,3.32-2.39,6.49.19,2.47,1.81,5.23,4.06,6.28-.02-1.34,2.02-5.02,3.26-5.3,1.93-.43,3.2,1.39,2.12,3.01-.95,1.42-1.73,1.87-1.84,3.87-.14,2.59,2.3,6.03,5.02,6.03h5.14v-12.75c-1.02-.38-2.05-.62-3.05-1.14-2.44-1.26-4.59-4-4.57-6.85.01-1.66,1.58-2.71,3.02-1.74.96.65.69,1.62.96,2.59.43,1.55,2.15,2.75,3.64,3.15ZM57.4,45.61v26.39h5.14c2.72,0,5.16-3.44,5.02-6.03-.11-2-.89-2.45-1.84-3.87-1.08-1.62.19-3.44,2.12-3.01,1.27.28,3.26,3.96,3.26,5.3,2.25-1.04,3.87-3.84,4.06-6.28.24-3.17-.84-4.16-2.39-6.49-1.17-1.76.42-2.59,1.22-3.94,1.72-2.87,1.54-6.56-.5-9.22-.36-.46-1.7-1.83-2.2-1.99-.26-.08-.16.07-.19.18-.55,1.79-1.83,5.31-4.13,5.15-1.48-.1-2.05-1.78-1.31-2.97.18-.29.48-.46.67-.73,4.29-6.33-4-12.66-8.91-7.13v10.62c.01.11.09.15.19.18.62.23,1.39.32,2.07.6,2.66,1.1,5.1,3.78,5.32,6.74.24,3.2-3.22,3.24-3.73,1.19-.13-.5-.05-.99-.22-1.55-.46-1.53-2.13-2.77-3.65-3.14ZM61.21,75.81h-11.42v3.36c0,.08.17.33.28.36l10.93-.03c.07-.04.21-.28.21-.33v-3.36ZM58.67,83.43h-6.35c.64,3.71,5.71,3.71,6.35,0Z"/>
        </g>
      </g>
    </g>
  </g>
</svg>