<?xml version="1.0" encoding="UTF-8"?>
<svg xmlns="http://www.w3.org/2000/svg" xmlns:xlink="http://www.w3.org/1999/xlink" viewBox="0 0 110 110">
  <defs>
    <style>
      .cls-1 {
        fill: #354052;
      }

      .cls-2 {
        fill: url(#radial-gradient);
      }

      .cls-3 {
        isolation: isolate;
      }

      .cls-4 {
        fill: url(#linear-gradient);
        mix-blend-mode: screen;
      }

      .cls-5 {
        fill: #fff;
      }
    </style>
    <radialGradient id="radial-gradient" cx="53.57" cy="71.02" fx="53.57" fy="89.55" r="55" gradientUnits="userSpaceOnUse">
      <stop offset="0" stop-color="#92e5f9"/>
      <stop offset=".2" stop-color="#8ee2f8"/>
      <stop offset=".36" stop-color="#84d8f4"/>
      <stop offset=".52" stop-color="#72c9ef"/>
      <stop offset=".67" stop-color="#5ab3e8"/>
      <stop offset=".81" stop-color="#3a97de"/>
      <stop offset=".95" stop-color="#1376d3"/>
      <stop offset="1" stop-color="#0569cf"/>
    </radialGradient>
    <linearGradient id="linear-gradient" x1="150.64" y1="-216.87" x2="223.09" y2="-216.87" gradientTransform="translate(-131.86 258.05)" gradientUnits="userSpaceOnUse">
      <stop offset="0" stop-color="#fff"/>
      <stop offset="1" stop-color="#000"/>
    </linearGradient>
  </defs>
  <g class="cls-3">
    <g id="Layer_2" data-name="Layer 2">
      <g id="Icon_Set" data-name="Icon Set">
        <path class="cls-5" d="M78.12,94.99c-.19-.17-.33-.54-.37-.8-.13-1.06-.14-4.73.02-5.75.21-1.34,2.23-1.49,2.47.16.14,1.01.16,4.6,0,5.58s-1.36,1.51-2.12.81Z"/>
        <rect class="cls-2" width="110" height="110" rx="25" ry="25"/>
        <rect class="cls-4" x="18.77" y="-8.49" width="72.45" height="99.34" rx="25" ry="25" transform="translate(96.18 -13.82) rotate(90)"/>
        <g>
          <path class="cls-1" d="M40.24,26.12l2.78.55c7.31,2.11,11.51,9.8,9.65,17.16l3.55,3.49,9.49-9.37c.14-.28-.89-1.05-1.12-1.35-.71-.92-.73-1.95.23-2.69l13-7.78h.82c.24.17.46.21.71.41,1.26,1,4.06,3.84,5.09,5.1.22.26.35.54.53.82v.82l-7.79,13c-.75.96-1.77.93-2.69.23-.29-.22-1.07-1.26-1.35-1.12l-9.37,9.49,3.49,3.55c2.56-.52,4.96-.59,7.5.11,4.73,1.3,8.25,5.02,9.66,9.66l.55,2.78c-.05.76.06,1.59,0,2.34-.1,1.27-1.13,5.25-2.11,6.03-.6.48-1.54.56-2.16.06-2.29-1.82-4.56-5.21-6.86-6.84-1.88-1.34-3.93.73-2.33,2.69,1.87,2.3,4.72,4.38,6.68,6.67,1.24,2.07-1.12,2.98-2.7,3.51-9.45,3.17-18.75-3.87-18.61-13.7l.45-3.25-1.08-1.01-17.07,16.9c-8.3,6.05-18.39-4.05-12.34-12.34l16.9-17.18-1.01-1.08c-1.86.34-3.58.56-5.46.32-9.28-1.17-14.91-11.07-11.02-19.66.62-1.36,1.43-2.46,3.04-1.53l7.07,6.99c1.79,1.03,3.53-.9,2.29-2.64-1.64-2.3-5.02-4.57-6.84-6.86-.5-.62-.41-1.56.06-2.16.78-.98,4.75-2.01,6.03-2.11h2.34ZM76.04,62.82c-1.67-1.03-4.42-1.36-6.35-1.21-1.23.1-2.75,1.01-3.85.33l-16.48-16.43c-1.06-1.16,0-2.73.12-4.1.24-2.88-.43-5.57-2.23-7.84-2.53-3.19-6.92-4.67-10.89-3.57,1.42,1.76,3.51,3.25,4.92,4.98,4.17,5.13-2.41,11.67-7.55,7.32-1.68-1.42-3.14-3.39-4.86-4.8-1.79,7.42,3.86,13.73,11.42,13.11,1.23-.1,2.75-1.01,3.85-.33l16.59,16.67c.86,1.17-.12,2.66-.23,3.98-.62,7.56,5.7,13.2,13.11,11.42-1.42-1.76-3.51-3.25-4.92-4.98-4.16-5.12,2.41-11.67,7.55-7.32,1.68,1.42,3.14,3.39,4.86,4.8,1.1-4.13-.38-8.28-3.64-10.94-.3-.24-1.17-.92-1.43-1.08ZM75.49,42.4l5.49-9.21-2.99-3.07-9.29,5.49,6.79,6.79ZM68.28,40.29l-9.61,9.61,2.53,2.53,9.61-9.61-2.53-2.53ZM46.29,57.4l-16.36,16.44c-4.06,4.83,1.52,11.17,6.79,7.96l16.94-16.8v-.23s-7.37-7.37-7.37-7.37Z"/>
          <path class="cls-1" d="M46.06,63.27c1.86-.42,3,1.55,1.79,2.96l-10.72,10.72c-1.83,1.47-3.98-.68-2.51-2.51,3.64-3.18,6.93-7.55,10.59-10.6.21-.18.59-.5.85-.56Z"/>
        </g>
      </g>
    </g>
  </g>
</svg>