<?xml version="1.0" encoding="UTF-8"?>
<svg xmlns="http://www.w3.org/2000/svg" xmlns:xlink="http://www.w3.org/1999/xlink" viewBox="0 0 110 110">
  <defs>
    <style>
      .cls-1 {
        fill: #354052;
      }

      .cls-2 {
        fill: url(#radial-gradient);
      }

      .cls-3 {
        isolation: isolate;
      }

      .cls-4 {
        fill: url(#linear-gradient);
        mix-blend-mode: screen;
      }
    </style>
    <radialGradient id="radial-gradient" cx="53.57" cy="71.02" fx="53.57" fy="89.55" r="55" gradientUnits="userSpaceOnUse">
      <stop offset="0" stop-color="#fe7b2b"/>
      <stop offset=".31" stop-color="#fd7e2c"/>
      <stop offset=".57" stop-color="#fb882f"/>
      <stop offset=".81" stop-color="#f99a35"/>
      <stop offset="1" stop-color="#f6ae3d"/>
    </radialGradient>
    <linearGradient id="linear-gradient" x1="-292.7" y1="-662.13" x2="-220.24" y2="-662.13" gradientTransform="translate(311.47 703.32)" gradientUnits="userSpaceOnUse">
      <stop offset="0" stop-color="#fff"/>
      <stop offset="1" stop-color="#000"/>
    </linearGradient>
  </defs>
  <g class="cls-3">
    <g id="Layer_2" data-name="Layer 2">
      <g id="Icon_Set" data-name="Icon Set">
        <rect class="cls-2" width="110" height="110" rx="25" ry="25"/>
        <rect class="cls-4" x="18.77" y="-8.49" width="72.45" height="99.34" rx="25" ry="25" transform="translate(96.18 -13.82) rotate(90)"/>
        <g>
          <path class="cls-1" d="M80.31,24.15c.64.17,1.2.19,1.84.45.95.39,1.9,1.31,2.32,2.25.3.68.35,1.4.53,2.11v4.93l-.49,4.73c-1.52,11.18-6.89,20.39-15.43,27.61l-.61,8.42c-.26,2.32-.98,3.26-2.78,4.64-2.28,1.74-6.33,4.47-8.78,5.86-.29.16-.59.18-.85.36h-1.17c-1.68-.64-2.3-1.51-2.66-3.26-.47-2.3-.57-4.75-1.1-7.05-1.76.28-3.27-.14-4.56-1.36-2.18-2.06-4.23-4.42-6.32-6.58-1.24-1.28-2.81-2.6-3.93-3.93s-1.5-2.8-1.24-4.56c-2.25-.54-4.66-.65-6.92-1.11-1.51-.31-2.47-.74-2.96-2.31-.39-1.26-.13-1.95.47-3.04,1.75-3.12,4.16-6.06,5.93-9.2,1.14-1.44,2.23-1.87,4.02-2.07,2.71-.31,5.47-.26,8.18-.61,7.74-9.65,18.88-15.91,31.44-16.16l.28-.12h4.8ZM81.09,28.18c-.26-.26-.83-.36-1.19-.39-4.8-.45-11.75.73-16.32,2.31-8.2,2.84-15.49,9.56-20.07,16.86-.34.55-2.24,3.67-2.05,4.05l17.29,17.66c.12.08.22.05.35,0,.24-.08,1.39-.74,1.68-.91,8.45-5.07,15.79-13.19,18.74-22.76,1.34-4.36,2.38-11.11,1.96-15.63-.03-.36-.13-.94-.39-1.19ZM41.06,44.21c-.71.1-1.62.02-2.29.11-.22.03-.15.22-.25.24-.61.14-1.96.04-2.67.12-1.54.19-1.73,1.11-2.52,2.28-1.57,2.33-3,4.76-4.57,7.1l7.25,1.04c1.06-3.9,2.91-7.5,5.05-10.9ZM55.35,70.25l-15.47-15.83c-.07.44-.31.84-.44,1.26-.26.86-1,3.53-.96,4.3.02.48,1.23,1.69,1.63,2.12,2.97,3.21,6.3,6.26,9.35,9.41.52.26,1.36-.02,1.93-.13,1.35-.26,2.65-.73,3.96-1.14ZM59.38,79.1c1.77-1.21,3.68-2.28,5.33-3.64.44-2.07.39-4.26.6-6.38-2.51,1.79-5.23,3-8.05,4.19-.14.06-.14.22-.24.26-.72.29-1.61.49-2.36.72l1.04,7.38c1.13-.71,2.27-1.44,3.37-2.2.16-.11.23-.28.3-.34Z"/>
          <path class="cls-1" d="M26.3,85.51c-1.17-.55-1.72-1.93-.87-3.04l11-11.27c1.87-1.65,4.1.45,2.64,2.52l-11.17,11.4-.67.39h-.94Z"/>
          <path class="cls-1" d="M37.54,85.51h-.47c-1.13-.33-1.98-1.73-1.25-2.83,2.04-1.78,3.96-4.66,6.05-6.26,1.62-1.25,3.66.44,2.68,2.21-1.16,2.09-4.91,4.44-6.31,6.58l-.7.3Z"/>
          <path class="cls-1" d="M32.12,65.24c1.73-.35,2.74,1.51,1.84,2.9l-6.04,6.16c-1.66,1.28-3.61-.63-2.62-2.39l6.14-6.28c.18-.15.44-.33.67-.38Z"/>
          <path class="cls-1" d="M74.99,43.47c0,4.91-3.98,8.89-8.88,8.89s-8.88-3.98-8.88-8.89,3.98-8.89,8.88-8.89,8.88,3.98,8.88,8.89ZM71.43,43.45c0-2.94-2.38-5.33-5.32-5.33s-5.32,2.39-5.32,5.33,2.38,5.33,5.32,5.33,5.32-2.39,5.32-5.33Z"/>
        </g>
      </g>
    </g>
  </g>
</svg>