<?xml version="1.0" encoding="UTF-8"?>
<svg id="Layer_2" data-name="Layer 2" xmlns="http://www.w3.org/2000/svg" viewBox="0 0 155.76 36.29">
  <defs>
    <style>
      .cls-1 {
        fill: #354052;
      }

      .cls-2 {
        fill: #fe7b2b;
      }

      .cls-3 {
        fill: #5377ef;
      }
    </style>
  </defs>
  <g id="Icon_Set" data-name="Icon Set">
    <path class="cls-1" d="M0,2.16h9.47c1.32,0,2.57.12,3.74.36,1.18.24,2.2.65,3.08,1.24.88.59,1.57,1.38,2.09,2.38.52,1,.77,2.25.77,3.76s-.24,2.74-.72,3.74c-.48,1.01-1.14,1.81-1.98,2.41-.84.6-1.84,1.03-2.99,1.28s-2.4.38-3.74.38h-4.1v9.94H0V2.16ZM5.62,12.96h3.74c.5,0,.99-.05,1.46-.14.47-.1.89-.26,1.26-.49s.67-.54.9-.94c.23-.4.34-.89.34-1.49,0-.65-.15-1.17-.45-1.57-.3-.4-.68-.7-1.15-.92-.47-.22-.99-.35-1.57-.41-.58-.06-1.13-.09-1.66-.09h-2.88v6.05Z"/>
    <path class="cls-1" d="M21,10.15h5.4v2.81h.07c.58-1.08,1.26-1.89,2.05-2.43s1.79-.81,2.99-.81c.31,0,.62.01.94.04.31.02.6.07.86.14v4.93c-.38-.12-.76-.21-1.13-.27-.37-.06-.76-.09-1.17-.09-1.03,0-1.85.14-2.45.43-.6.29-1.06.69-1.39,1.21-.32.52-.53,1.13-.63,1.85-.1.72-.14,1.51-.14,2.38v7.31h-5.4V10.15Z"/>
    <path class="cls-2" d="M34.35,18.9c0-1.39.25-2.65.76-3.78.5-1.13,1.19-2.09,2.07-2.9s1.91-1.42,3.1-1.85c1.19-.43,2.45-.65,3.8-.65s2.61.22,3.8.65c1.19.43,2.22,1.05,3.1,1.85s1.57,1.77,2.07,2.9c.5,1.13.76,2.39.76,3.78s-.25,2.65-.76,3.78-1.19,2.09-2.07,2.9-1.91,1.42-3.1,1.85c-1.19.43-2.45.65-3.8.65s-2.61-.22-3.8-.65c-1.19-.43-2.22-1.05-3.1-1.85s-1.57-1.77-2.07-2.9-.76-2.39-.76-3.78ZM39.75,18.9c0,1.32.38,2.39,1.13,3.2s1.82,1.22,3.19,1.22,2.43-.41,3.19-1.22,1.13-1.88,1.13-3.2-.38-2.39-1.13-3.2c-.76-.82-1.82-1.22-3.19-1.22s-2.43.41-3.19,1.22c-.76.82-1.13,1.88-1.13,3.2Z"/>
    <path class="cls-2" d="M49.14,18.9c0-1.39.25-2.65.76-3.78.5-1.13,1.19-2.09,2.07-2.9.88-.8,1.91-1.42,3.1-1.85,1.19-.43,2.45-.65,3.8-.65s2.61.22,3.8.65c1.19.43,2.22,1.05,3.1,1.85.88.8,1.57,1.77,2.07,2.9.5,1.13.76,2.39.76,3.78s-.25,2.65-.76,3.78c-.5,1.13-1.19,2.09-2.07,2.9-.88.8-1.91,1.42-3.1,1.85-1.19.43-2.45.65-3.8.65s-2.61-.22-3.8-.65c-1.19-.43-2.22-1.05-3.1-1.85-.88-.8-1.57-1.77-2.07-2.9s-.76-2.39-.76-3.78ZM54.54,18.9c0,1.32.38,2.39,1.13,3.2s1.82,1.22,3.19,1.22,2.43-.41,3.19-1.22,1.13-1.88,1.13-3.2-.38-2.39-1.13-3.2c-.76-.82-1.82-1.22-3.19-1.22s-2.43.41-3.19,1.22c-.76.82-1.13,1.88-1.13,3.2Z"/>
    <path class="cls-1" d="M72.79,14.47h-3.56v-4.32h3.56v-3.1c0-.96.08-1.87.25-2.72.17-.85.49-1.6.97-2.25s1.17-1.16,2.07-1.53,2.08-.56,3.55-.56c.55,0,1.09.02,1.62.07.53.05,1.04.13,1.55.25l-.25,4.57c-.31-.12-.6-.21-.86-.27-.26-.06-.56-.09-.9-.09-.86,0-1.51.19-1.94.56-.43.37-.65,1.13-.65,2.29v2.77h4v4.32h-4v13.18h-5.4v-13.18Z"/>
    <path class="cls-3" d="M97.16,14.47h-4.75v5.83c0,.48.02.92.07,1.31s.16.74.32,1.03.43.51.77.67c.35.16.81.23,1.39.23.29,0,.67-.03,1.13-.09.47-.06.82-.2,1.06-.41v4.5c-.6.22-1.22.36-1.87.43-.65.07-1.28.11-1.91.11-.91,0-1.75-.1-2.52-.29-.77-.19-1.44-.5-2.02-.92s-1.03-.97-1.35-1.64c-.32-.67-.49-1.49-.49-2.45v-8.32h-3.46v-4.32h3.46v-5.18h5.4v5.18h4.75v4.32Z"/>
    <path class="cls-3" d="M100.24,18.9c0-1.39.25-2.65.76-3.78.5-1.13,1.19-2.09,2.07-2.9s1.91-1.42,3.1-1.85c1.19-.43,2.45-.65,3.8-.65s2.61.22,3.8.65c1.19.43,2.22,1.05,3.1,1.85s1.57,1.77,2.07,2.9c.5,1.13.76,2.39.76,3.78s-.25,2.65-.76,3.78-1.19,2.09-2.07,2.9-1.91,1.42-3.1,1.85c-1.19.43-2.45.65-3.8.65s-2.61-.22-3.8-.65c-1.19-.43-2.22-1.05-3.1-1.85s-1.57-1.77-2.07-2.9-.76-2.39-.76-3.78ZM105.64,18.9c0,1.32.38,2.39,1.13,3.2s1.82,1.22,3.19,1.22,2.43-.41,3.19-1.22,1.13-1.88,1.13-3.2-.38-2.39-1.13-3.2c-.76-.82-1.82-1.22-3.19-1.22s-2.43.41-3.19,1.22c-.76.82-1.13,1.88-1.13,3.2Z"/>
    <path class="cls-3" d="M131.93,30.49c-.36.94-.71,1.76-1.04,2.48-.34.72-.76,1.33-1.28,1.82-.52.49-1.17.86-1.96,1.12-.79.25-1.84.38-3.13.38-1.39,0-2.74-.22-4.03-.65l.72-4.43c.82.36,1.66.54,2.52.54.6,0,1.09-.07,1.48-.2s.7-.32.95-.58.46-.56.63-.92c.17-.36.35-.78.54-1.26l.4-1.01-7.67-17.64h5.83l4.5,11.56h.07l3.85-11.56h5.54l-7.92,20.34Z"/>
    <path class="cls-3" d="M151.77,15.3c-.79-.98-1.84-1.48-3.13-1.48-.46,0-.9.11-1.33.32-.43.22-.65.59-.65,1.12,0,.43.22.75.67.95.44.2,1.01.38,1.69.54.68.16,1.42.32,2.2.5.78.18,1.51.46,2.2.85.68.38,1.25.91,1.69,1.57.44.66.67,1.54.67,2.65s-.25,2.06-.74,2.79c-.49.73-1.12,1.32-1.89,1.76-.77.44-1.63.76-2.59.94-.96.18-1.91.27-2.84.27-1.22,0-2.46-.17-3.71-.52-1.25-.35-2.3-.97-3.17-1.85l3.28-3.64c.5.62,1.06,1.1,1.67,1.42.61.32,1.33.49,2.14.49.62,0,1.19-.09,1.69-.27.5-.18.76-.51.76-.99,0-.46-.22-.8-.67-1.03-.44-.23-1.01-.42-1.69-.58-.68-.16-1.42-.32-2.2-.5-.78-.18-1.51-.45-2.2-.81-.68-.36-1.25-.87-1.69-1.53-.44-.66-.67-1.54-.67-2.65,0-1.03.21-1.92.63-2.66.42-.74.97-1.36,1.66-1.84.68-.48,1.47-.83,2.36-1.06.89-.23,1.79-.34,2.7-.34,1.15,0,2.32.17,3.49.5,1.18.34,2.17.94,2.99,1.8l-3.31,3.28Z"/>
  </g>
</svg>