<?xml version="1.0" encoding="UTF-8"?>
<svg xmlns="http://www.w3.org/2000/svg" xmlns:xlink="http://www.w3.org/1999/xlink" viewBox="0 0 110 110">
  <defs>
    <style>
      .cls-1 {
        fill: #354052;
      }

      .cls-2 {
        fill: url(#radial-gradient);
      }

      .cls-3 {
        isolation: isolate;
      }

      .cls-4 {
        fill: url(#linear-gradient);
        mix-blend-mode: screen;
      }
    </style>
    <radialGradient id="radial-gradient" cx="53.57" cy="71.02" fx="53.57" fy="89.55" r="55" gradientUnits="userSpaceOnUse">
      <stop offset="0" stop-color="#e1bd2a"/>
      <stop offset=".39" stop-color="#dfbf2d"/>
      <stop offset=".72" stop-color="#d9c837"/>
      <stop offset="1" stop-color="#d2d647"/>
    </radialGradient>
    <linearGradient id="linear-gradient" x1="-146.55" y1="-510.72" x2="-74.1" y2="-510.72" gradientTransform="translate(165.32 551.9)" gradientUnits="userSpaceOnUse">
      <stop offset="0" stop-color="#fff"/>
      <stop offset="1" stop-color="#000"/>
    </linearGradient>
  </defs>
  <g class="cls-3">
    <g id="Layer_2" data-name="Layer 2">
      <g id="Icon_Set" data-name="Icon Set">
        <rect class="cls-2" width="110" height="110" rx="25" ry="25"/>
        <rect class="cls-4" x="18.77" y="-8.49" width="72.45" height="99.34" rx="25" ry="25" transform="translate(96.18 -13.82) rotate(90)"/>
        <g>
          <g>
            <path class="cls-1" d="M25.02,39.63c.27-3.23,2.25-6.66,4.81-8.6,5.85-4.43,14.13-2.85,17.97,3.33.17.04.19-.11.27-.19.39-.41.8-1.19,1.25-1.68,5.09-5.62,14.28-5.21,18.85.83,3.96,5.23,3.14,12.32-1.57,16.75,1.54.53,2.94,1.9,3.57,3.4.15.36.53,1.49.53,1.81v2.64l11.8-5.83c1.05-.43,2.09.08,2.44,1.14l.06,23.97c-.08,1.14-1.12,1.92-2.24,1.64l-12.06-5.92v2.64c0,2.72-3.42,5.79-6.14,5.69l-33.73-.02c-2.86-.26-5.49-2.73-5.81-5.61v-20.39c.42-2.3,1.86-4.36,4.1-5.16-1.5-1.54-2.81-3.29-3.48-5.36l-.62-2.72c.05-.76-.06-1.59,0-2.34ZM46.1,40.8c0-4.85-3.93-8.78-8.78-8.78s-8.78,3.93-8.78,8.78,3.93,8.78,8.78,8.78,8.78-3.93,8.78-8.78ZM67.19,40.8c0-4.85-3.93-8.78-8.78-8.78s-8.78,3.93-8.78,8.78,3.93,8.78,8.78,8.78,8.78-3.93,8.78-8.78ZM49.74,49.59c-.33-.45-.76-.86-1.1-1.3-.16-.2-.61-1.1-.83-1.04l-1.82,2.34h3.75ZM30.96,53.13c-1.35.29-2.23,1.24-2.43,2.61v19.34c.22,1.47,1.25,2.5,2.75,2.64h33.16c1.53-.14,2.6-1.23,2.75-2.75v-19.22c-.22-1.47-1.25-2.5-2.75-2.64l-33.48.03ZM81.48,74.31v-17.81l-10.76,5.29-.03,7.08,10.79,5.44Z"/>
            <g>
              <path class="cls-1" d="M33.42,63.68l8.87-.02c1.96.47,1.96,3.03,0,3.5-2.66-.28-6.21.4-8.77,0-1.88-.3-1.97-3.04-.1-3.48Z"/>
              <path class="cls-1" d="M33.42,70.71l8.87-.02c1.96.47,1.96,3.03,0,3.5-2.66-.28-6.21.4-8.77,0-1.88-.3-1.97-3.04-.1-3.48Z"/>
            </g>
          </g>
          <g>
            <path class="cls-1" d="M42.59,40.8c0,2.91-2.36,5.27-5.27,5.27s-5.27-2.36-5.27-5.27,2.36-5.27,5.27-5.27,5.27,2.36,5.27,5.27ZM39.08,40.8c0-.97-.79-1.76-1.75-1.76s-1.75.79-1.75,1.76.79,1.76,1.75,1.76,1.75-.79,1.75-1.76Z"/>
            <path class="cls-1" d="M63.67,40.8c0,2.91-2.36,5.27-5.27,5.27s-5.27-2.36-5.27-5.27,2.36-5.27,5.27-5.27,5.27,2.36,5.27,5.27ZM60.16,40.8c0-.97-.79-1.76-1.75-1.76s-1.75.79-1.75,1.76.79,1.76,1.75,1.76,1.75-.79,1.75-1.76Z"/>
          </g>
        </g>
      </g>
    </g>
  </g>
</svg>